<?xml version="1.0" encoding="UTF-8" standalone="no"?><!-- Generator: Gravit.io --><svg xmlns="http://www.w3.org/2000/svg" xmlns:xlink="http://www.w3.org/1999/xlink" style="isolation:isolate" viewBox="0 0 600 600" width="600pt" height="600pt"><defs><clipPath id="_clipPath_mzCyB7wfxWaiBZlEYgFQJnW22l6CSIpB"><rect width="600" height="600"/></clipPath></defs><g clip-path="url(#_clipPath_mzCyB7wfxWaiBZlEYgFQJnW22l6CSIpB)"><g><path d=" M 538.601 111.064 L 61.399 111.064 C 51.79 111.064 44 118.854 44 128.463 L 44 387.834 C 44 397.444 51.79 405.233 61.399 405.233 L 538.601 405.233 C 548.21 405.233 556 397.444 556 387.834 L 556 128.463 C 556 118.854 548.21 111.064 538.601 111.064 Z " fill="rgb(211,211,211)"/><path d=" M 399.423 458.75 L 340.354 458.75 L 340.354 435.419 L 259.646 435.419 L 259.646 458.75 L 200.576 458.75 C 192.241 458.75 185.483 465.506 185.483 473.843 C 185.483 482.178 192.24 488.936 200.576 488.936 L 399.423 488.936 C 407.758 488.936 414.516 482.179 414.516 473.843 C 414.516 465.508 407.759 458.75 399.423 458.75 Z " fill="rgb(255,109,1)"/></g></g></svg>