<?xml version="1.0" encoding="UTF-8" standalone="no"?><!-- Generator: Gravit.io --><svg xmlns="http://www.w3.org/2000/svg" xmlns:xlink="http://www.w3.org/1999/xlink" style="isolation:isolate" viewBox="0 0 68 68" width="68pt" height="68pt"><defs><clipPath id="_clipPath_KdzuMnvyuY7qAkqKcRB1jt1Q1Sx7LAW8"><rect width="68" height="68"/></clipPath></defs><g clip-path="url(#_clipPath_KdzuMnvyuY7qAkqKcRB1jt1Q1Sx7LAW8)"><rect x="8.8" y="23" width="48.2" height="30.5" transform="matrix(1,0,0,1,0,0)" fill="rgb(255,109,1)"/><g><circle vector-effect="non-scaling-stroke" cx="34" cy="38.53125" r="9.17578125" fill="rgb(211,211,211)"/><path d=" M 47.401 15.309 L 46.814 12.377 C 46.498 10.794 45.096 9.645 43.482 9.645 L 24.518 9.645 C 22.904 9.645 21.502 10.794 21.186 12.377 L 20.599 15.309 L 47.401 15.309 Z " fill="rgb(211,211,211)"/><path d=" M 57.902 18.707 C 53.912 18.707 11.965 18.707 10.098 18.707 C 7.287 18.707 5 20.994 5 23.805 L 5 53.258 C 5 56.069 7.287 58.355 10.098 58.355 L 57.902 58.355 C 60.713 58.355 63 56.069 63 53.258 L 63 23.805 C 63 20.994 60.713 18.707 57.902 18.707 Z  M 19.5 29.355 L 14.063 29.355 C 13.124 29.355 12.363 28.595 12.363 27.656 C 12.363 26.718 13.124 25.957 14.063 25.957 L 19.5 25.957 C 20.438 25.957 21.199 26.718 21.199 27.656 C 21.199 28.595 20.438 29.355 19.5 29.355 Z  M 34 51.105 C 27.067 51.105 21.426 45.465 21.426 38.531 C 21.426 31.598 27.067 25.957 34 25.957 C 40.933 25.957 46.574 31.598 46.574 38.531 C 46.574 45.465 40.933 51.105 34 51.105 Z " fill="rgb(211,211,211)"/></g></g></svg>