<?xml version="1.0" encoding="UTF-8" standalone="no"?><!-- Generator: Gravit.io --><svg xmlns="http://www.w3.org/2000/svg" xmlns:xlink="http://www.w3.org/1999/xlink" style="isolation:isolate" viewBox="0 0 520 520" width="520pt" height="520pt"><defs><clipPath id="_clipPath_kIoQkvaQXMv3xCG1YtV3O7C6q0D9eiS1"><rect width="520" height="520"/></clipPath></defs><g clip-path="url(#_clipPath_kIoQkvaQXMv3xCG1YtV3O7C6q0D9eiS1)"><circle vector-effect="non-scaling-stroke" cx="208.82950193422124" cy="207.37300190621156" r="157.17049806577882" fill="rgb(255,109,1)"/><g><g><g><path d=" M 509.975 452.972 L 435.023 378.172 C 427.87 371.02 418.13 367.671 408.694 368.128 L 372.625 332.06 C 434.032 250.869 427.793 134.75 353.83 60.712 C 272.945 -20.174 141.685 -20.174 60.799 60.864 C -20.241 141.903 -20.241 273.011 60.646 353.898 C 134.685 427.937 250.803 434.1 331.994 372.693 L 368.062 408.762 C 367.605 418.197 370.953 427.937 378.106 435.09 L 452.906 509.889 C 466.298 523.282 488.136 523.282 501.529 509.889 L 509.823 501.595 C 523.367 488.202 523.367 466.516 509.975 452.972 Z  M 309.013 309.079 C 252.856 365.236 161.621 365.388 105.465 309.232 C 49.308 253.075 49.308 161.992 105.617 105.683 C 161.773 49.526 253.009 49.374 309.166 105.53 C 365.322 161.687 365.094 252.771 309.013 309.079 Z " fill="rgb(211,211,211)"/></g></g></g></g></svg>